C:\Users\r0593348\3dpredictsim\Results\Batchsim_tmt_linear\Pog_s1_tmt_aCst_d00_k2000_ig24_act_GRF.mot
nRows=30
nColumns=19

name C:\Users\r0593348\3dpredictsim\Results\Batchsim_tmt_linear\Pog_s1_tmt_aCst_d00_k2000_ig24_act_GRF.mot
datacolumns 19
datarows 30
range 0.5978607310 0.9446199549
endheader
time 	ground_force_vx	ground_force_vy	ground_force_vz	ground_force_px	ground_force_py	ground_force_pz	1_ground_force_vx	1_ground_force_vy	1_ground_force_vz	1_ground_force_px	1_ground_force_py	1_ground_force_pz	ground_torque_x	ground_torque_y	ground_torque_z	1_ground_torque_x	1_ground_torque_y	1_ground_torque_z
        0.5978607310	      108.0090596466	      438.7730076299	        1.4371499314	        0.3975086566	        0.0000000000	        0.0342078274	      -41.4820941950	       29.5440630403	       -8.5840627537	        0.9195996815	        0.0000000000	       -0.0536147263	        0.0000000000	        0.0000000000	        0.0000000000	        0.0000000000	        0.0000000000	        0.0000000000	
        0.6098179456	       79.4793113567	      341.4700645006	        6.6667713493	        0.4044949033	        0.0000000000	        0.0315155624	     -100.0981847118	       86.9885042452	      -26.9503609966	        0.9304419613	        0.0000000000	       -0.0513046651	        0.0000000000	        0.0000000000	        0.0000000000	        0.0000000000	        0.0000000000	        0.0000000000	
        0.6217751602	       45.7053935122	      234.6649257798	       15.5067782371	        0.4164137364	        0.0000000000	        0.0265143987	     -103.5267740522	      215.7761018459	      -44.3703977727	        0.9374913899	        0.0000000000	       -0.0498512094	        0.0000000000	        0.0000000000	        0.0000000000	        0.0000000000	        0.0000000000	        0.0000000000	
        0.6337323748	       29.9279530016	      176.9458941438	       18.3655527676	        0.4247263167	        0.0000000000	        0.0225197101	      -60.2356563020	      431.7866124607	       -5.3225566460	        0.9422883354	        0.0000000000	       -0.0490365090	        0.0000000000	        0.0000000000	        0.0000000000	        0.0000000000	        0.0000000000	        0.0000000000	
        0.6456895895	       28.4901203614	      140.6979413063	       14.7835554998	        0.4251216345	        0.0000000000	        0.0223625642	      -82.0781619553	      676.9884197451	       14.3369234682	        0.9518663314	        0.0000000000	       -0.0508879821	        0.0000000000	        0.0000000000	        0.0000000000	        0.0000000000	        0.0000000000	        0.0000000000	
        0.6576468041	       18.0744572935	       92.1489395900	       13.9580658978	        0.4253368223	        0.0000000000	        0.0225323048	     -119.7354179458	      855.1925129951	       22.0274811726	        0.9602539854	        0.0000000000	       -0.0527751559	        0.0000000000	        0.0000000000	        0.0000000000	        0.0000000000	        0.0000000000	        0.0000000000	
        0.6696040187	        2.8457215542	       36.6776052418	        8.6316774482	        0.4249272324	        0.0000000000	        0.0227540342	     -133.6874321844	      907.2259834474	       23.0954529196	        0.9655681979	        0.0000000000	       -0.0538497154	        0.0000000000	        0.0000000000	        0.0000000000	        0.0000000000	        0.0000000000	        0.0000000000	
        0.6815612333	        0.2710893503	       -0.2761239327	       -0.0123329021	        0.0000000000	        0.0000000000	        0.0000000000	     -127.1543843856	      894.1353866519	       22.0557956858	        0.9695215588	        0.0000000000	       -0.0544162342	        0.0000000000	        0.0000000000	        0.0000000000	        0.0000000000	        0.0000000000	        0.0000000000	
        0.6935184479	        0.0022304536	       -0.0018069630	        0.0001106932	        0.0000000000	        0.0000000000	        0.0000000000	     -113.0764508197	      852.4776831526	       20.9488235257	        0.9736491556	        0.0000000000	       -0.0545990622	        0.0000000000	        0.0000000000	        0.0000000000	        0.0000000000	        0.0000000000	        0.0000000000	
        0.7054756626	        0.0046581037	       -0.0032265406	        0.0003135228	        0.0000000000	        0.0000000000	        0.0000000000	      -99.1543628559	      803.7915518228	       19.8736621823	        0.9783005335	        0.0000000000	       -0.0545026105	        0.0000000000	        0.0000000000	        0.0000000000	        0.0000000000	        0.0000000000	        0.0000000000	
        0.7174328772	        0.0479577886	       -0.0295510891	        0.0034700192	        0.0000000000	        0.0000000000	        0.0000000000	      -88.9324600922	      763.8836160154	       19.3215164842	        0.9839466743	        0.0000000000	       -0.0541509440	        0.0000000000	        0.0000000000	        0.0000000000	        0.0000000000	        0.0000000000	        0.0000000000	
        0.7293900918	       -0.3337532860	        0.1887026702	       -0.0253384270	        0.0000000000	        0.0000000000	        0.0000000000	      -79.2469647701	      728.9435380375	       19.4441125460	        0.9897085321	        0.0000000000	       -0.0536643381	        0.0000000000	        0.0000000000	        0.0000000000	        0.0000000000	        0.0000000000	        0.0000000000	
        0.7413473064	       -0.2588001249	        0.1376436248	       -0.0188926068	        0.0000000000	        0.0000000000	        0.0000000000	      -69.4030861519	      696.1524733637	       19.4389909840	        0.9949702921	        0.0000000000	       -0.0532639211	        0.0000000000	        0.0000000000	        0.0000000000	        0.0000000000	        0.0000000000	        0.0000000000	
        0.7533045210	       -0.1576201303	        0.0798036985	       -0.0114480273	        0.0000000000	        0.0000000000	        0.0000000000	      -60.2022345058	      668.3908722142	       19.9249523787	        0.9999529063	        0.0000000000	       -0.0529467161	        0.0000000000	        0.0000000000	        0.0000000000	        0.0000000000	        0.0000000000	        0.0000000000	
        0.7652617356	       -0.1081102708	        0.0525409004	       -0.0078589946	        0.0000000000	        0.0000000000	        0.0000000000	      -52.0106056182	      645.6565333819	       20.3794957724	        1.0048559657	        0.0000000000	       -0.0526853901	        0.0000000000	        0.0000000000	        0.0000000000	        0.0000000000	        0.0000000000	        0.0000000000	
        0.7772189503	       -0.0899353387	        0.0422431294	       -0.0065778946	        0.0000000000	        0.0000000000	        0.0000000000	      -44.1589194563	      627.5819123465	       20.9226875503	        1.0100897689	        0.0000000000	       -0.0524156516	        0.0000000000	        0.0000000000	        0.0000000000	        0.0000000000	        0.0000000000	        0.0000000000	
        0.7891761649	       -0.0900845990	        0.0411003092	       -0.0066124460	        0.0000000000	        0.0000000000	        0.0000000000	      -37.8178444349	      614.1566233374	       21.2947656456	        1.0161254984	        0.0000000000	       -0.0520551857	        0.0000000000	        0.0000000000	        0.0000000000	        0.0000000000	        0.0000000000	        0.0000000000	
        0.8011333795	       -0.1055625674	        0.0469645077	       -0.0077251190	        0.0000000000	        0.0000000000	        0.0000000000	      -33.1267772129	      605.1528497259	       21.3052711057	        1.0227687195	        0.0000000000	       -0.0515814833	        0.0000000000	        0.0000000000	        0.0000000000	        0.0000000000	        0.0000000000	        0.0000000000	
        0.8130905941	       -0.1409382961	        0.0612776425	       -0.0102168555	        0.0000000000	        0.0000000000	        0.0000000000	      -29.1024481310	      599.4610793679	       20.8753177089	        1.0297802295	        0.0000000000	       -0.0510100451	        0.0000000000	        0.0000000000	        0.0000000000	        0.0000000000	        0.0000000000	        0.0000000000	
        0.8250478087	       -0.2073222711	        0.0882334207	       -0.0146702077	        0.0000000000	        0.0000000000	        0.0000000000	      -25.9628039362	      595.8426665353	       19.8787367690	        1.0369162375	        0.0000000000	       -0.0503704156	        0.0000000000	        0.0000000000	        0.0000000000	        0.0000000000	        0.0000000000	        0.0000000000	
        0.8370050234	       -0.3213603918	        0.1341432164	       -0.0219044045	        0.0000000000	        0.0000000000	        0.0000000000	      -23.4735554418	      593.5791807477	       18.9506865029	        1.0439325779	        0.0000000000	       -0.0496950137	        0.0000000000	        0.0000000000	        0.0000000000	        0.0000000000	        0.0000000000	        0.0000000000	
        0.8489622380	       -0.5006579741	        0.2054517918	       -0.0326213223	        0.0000000000	        0.0000000000	        0.0000000000	      -21.1003969514	      591.4083146030	       18.5396502964	        1.0507047499	        0.0000000000	       -0.0490098414	        0.0000000000	        0.0000000000	        0.0000000000	        0.0000000000	        0.0000000000	        0.0000000000	
        0.8609194526	       -0.7536816795	        0.3047711110	       -0.0468985514	        0.0000000000	        0.0000000000	        0.0000000000	      -18.6053077693	      588.5680217085	       18.4097775325	        1.0572633071	        0.0000000000	       -0.0483218924	        0.0000000000	        0.0000000000	        0.0000000000	        0.0000000000	        0.0000000000	        0.0000000000	
        0.8728766672	       -1.0683946657	        0.4266912107	       -0.0636246000	        0.0000000000	        0.0000000000	        0.0000000000	      -16.0478121658	      584.7402278288	       18.3975564433	        1.0636191149	        0.0000000000	       -0.0476344196	        0.0000000000	        0.0000000000	        0.0000000000	        0.0000000000	        0.0000000000	        0.0000000000	
        0.8848338818	       -1.4045206301	        0.5552721732	       -0.0802509202	        0.0000000000	        0.0000000000	        0.0000000000	      -13.3555766060	      580.1435932803	       18.4469076539	        1.0697961780	        0.0000000000	       -0.0469461101	        0.0000000000	        0.0000000000	        0.0000000000	        0.0000000000	        0.0000000000	        0.0000000000	
        0.8967910965	       -1.7093366080	        0.6703913639	       -0.0935891522	        0.0000000000	        0.0000000000	        0.0000000000	      -10.4407200348	      574.8500092740	       18.3296820091	        1.0757921952	        0.0000000000	       -0.0462587558	        0.0000000000	        0.0000000000	        0.0000000000	        0.0000000000	        0.0000000000	        0.0000000000	
        0.9087483111	       -1.9445677867	        0.7578729295	       -0.1010382863	        0.0000000000	        0.0000000000	        0.0000000000	       -7.4697097947	      569.3115474749	       17.8838468251	        1.0816177841	        0.0000000000	       -0.0455691516	        0.0000000000	        0.0000000000	        0.0000000000	        0.0000000000	        0.0000000000	        0.0000000000	
        0.9207055257	       -2.1035946281	        0.8157373262	       -0.1015435482	        0.0000000000	        0.0000000000	        0.0000000000	       -4.4718380606	      565.3744271703	       16.6683278824	        1.0873751821	        0.0000000000	       -0.0448579271	        0.0000000000	        0.0000000000	        0.0000000000	        0.0000000000	        0.0000000000	        0.0000000000	
        0.9326627403	       -2.1935971140	        0.8471104760	       -0.0943470542	        0.0000000000	        0.0000000000	        0.0000000000	       -1.5674783230	      563.5819176185	       15.0289205458	        1.0929881842	        0.0000000000	       -0.0441271547	        0.0000000000	        0.0000000000	        0.0000000000	        0.0000000000	        0.0000000000	        0.0000000000	
        0.9446199549	       -2.2024437634	        0.8477374634	       -0.0795014623	        0.0000000000	        0.0000000000	        0.0000000000	        1.4056078465	      564.5948782497	       13.4624375059	        1.0982969505	        0.0000000000	       -0.0433945999	        0.0000000000	        0.0000000000	        0.0000000000	        0.0000000000	        0.0000000000	        0.0000000000	
